# xmcd
#
# Track frame offsets:
#	150
#	19233
#	38677
#	52941
#	68590
#	88196
#	103441
#	124599
#	142423
#	166448
#	185905
#	199848
#	217365
#	231792
#
# Disc length: 3401 seconds
#
# Revision: 1
# Processed by: cddbd v1.4b41PL3 Copyright (c) Steve Scherf et al.
# Submitted via: audiograbber 1.80
#
DISCID=da0d470e
DTITLE=2000 Lbs of Blues - Livin' Large
DYEAR=1900
DGENRE=
TTITLE0=Wolf On The River
TTITLE1=Kidney Stew
TTITLE2=Pink Champagne
TTITLE3=Big Stella's Peepshow
TTITLE4=Waiting Up For You
TTITLE5=Roll Over and Turn Out The Lights
TTITLE6=Dr. Brown
TTITLE7=Here There and Everywhere
TTITLE8=Honky Tonk
TTITLE9=Stoop Down Baby
TTITLE10=How Can You Be So Mean?
TTITLE11=Drivin' Thru Utah
TTITLE12=Lowe Groovin'
TTITLE13=Blue and Lonesome
EXTD=
EXTT0=
EXTT1=
EXTT2=
EXTT3=
EXTT4=
EXTT5=
EXTT6=
EXTT7=
EXTT8=
EXTT9=
EXTT10=
EXTT11=
EXTT12=
EXTT13=
PLAYORDER=
